<svg width="62" height="59" viewBox="0 0 62 59" fill="none" xmlns="http://www.w3.org/2000/svg">
<path d="M6.33336 58.7501C4.63753 58.7501 3.18528 58.1458 1.97661 56.9371C0.767942 55.7284 0.164637 54.2772 0.166692 52.5834V40.2501H21.75V46.4168H40.25V40.2501H61.8334V52.5834C61.8334 54.2793 61.229 55.7315 60.0204 56.9402C58.8117 58.1488 57.3605 58.7521 55.6667 58.7501H6.33336ZM27.9167 40.2501V34.0834H34.0834V40.2501H27.9167ZM0.166692 34.0834V18.6668C0.166692 16.9709 0.771026 15.5187 1.97969 14.31C3.18836 13.1013 4.63958 12.498 6.33336 12.5001H18.6667V6.33342C18.6667 4.63759 19.271 3.18534 20.4797 1.97667C21.6884 0.768003 23.1396 0.164698 24.8334 0.166753H37.1667C38.8625 0.166753 40.3148 0.771087 41.5234 1.97975C42.7321 3.18842 43.3354 4.63964 43.3334 6.33342V12.5001H55.6667C57.3625 12.5001 58.8148 13.1044 60.0234 14.3131C61.2321 15.5218 61.8354 16.973 61.8334 18.6668V34.0834H40.25V27.9168H21.75V34.0834H0.166692ZM24.8334 12.5001H37.1667V6.33342H24.8334V12.5001Z" fill="#5F4CDC"/>
</svg>
