<svg width="52" height="76" viewBox="0 0 52 76" fill="none" xmlns="http://www.w3.org/2000/svg">
<path fill-rule="evenodd" clip-rule="evenodd" d="M25.9992 0.25012C32.4662 0.25012 37.7913 0.819245 41.8658 1.50799C45.9947 2.20399 48.0573 2.55199 49.7828 4.67624C51.5083 6.80049 51.414 9.09512 51.2328 13.6844C50.6093 29.4495 47.209 49.1369 28.7179 50.8769V63.6876H33.9017C34.7394 63.6881 35.5511 63.9787 36.1987 64.5101C36.8463 65.0414 37.29 65.7807 37.4542 66.6021L38.1429 70.0314H47.7492C48.4702 70.0314 49.1618 70.3178 49.6716 70.8277C50.1815 71.3375 50.4679 72.0291 50.4679 72.7501C50.4679 73.4712 50.1815 74.1627 49.6716 74.6726C49.1618 75.1824 48.4702 75.4689 47.7492 75.4689H4.24917C3.52811 75.4689 2.83659 75.1824 2.32672 74.6726C1.81686 74.1627 1.53042 73.4712 1.53042 72.7501C1.53042 72.0291 1.81686 71.3375 2.32672 70.8277C2.83659 70.3178 3.52811 70.0314 4.24917 70.0314H13.8554L14.5442 66.6021C14.7084 65.7807 15.152 65.0414 15.7996 64.5101C16.4473 63.9787 17.259 63.6881 18.0967 63.6876H23.2804V50.8769C4.79292 49.1369 1.39267 29.4459 0.769168 13.6844C0.584293 9.09512 0.493668 6.79687 2.21917 4.67624C3.94104 2.55199 6.00367 2.20399 10.1325 1.50799C15.3773 0.648422 20.6845 0.227673 25.9992 0.25012ZM29.4502 15.4715L29.0949 14.8335C27.7174 12.3576 27.0287 11.1251 25.9992 11.1251C24.9697 11.1251 24.2809 12.3576 22.9034 14.8335L22.5482 15.4715C22.1567 16.1747 21.9609 16.5227 21.6564 16.7547C21.3483 16.9867 20.9677 17.0737 20.2064 17.2441L19.5177 17.4036C16.8424 18.009 15.5048 18.3099 15.1858 19.3321C14.8668 20.358 15.7803 21.4237 17.6037 23.5552L18.0749 24.1062C18.5933 24.7116 18.8543 25.0125 18.9703 25.3895C19.0863 25.7665 19.0464 26.1689 18.9703 26.9772L18.8978 27.7131C18.6223 30.5587 18.4845 31.9834 19.3147 32.6141C20.1484 33.2449 21.4027 32.6685 23.9075 31.5157L24.5528 31.2185C25.2669 30.8922 25.6222 30.7291 25.9992 30.7291C26.3762 30.7291 26.7314 30.8922 27.4455 31.2185L28.0908 31.5157C30.5957 32.6721 31.8499 33.2449 32.6837 32.6141C33.5174 31.9834 33.376 30.5587 33.1005 27.7131L33.028 26.9772C32.9519 26.1689 32.912 25.7665 33.028 25.3895C33.144 25.0161 33.405 24.7116 33.9234 24.1062L34.3947 23.5552C36.218 21.4237 37.1315 20.358 36.8125 19.3321C36.4935 18.3099 35.1559 18.009 32.4807 17.4036L31.7919 17.2441C31.0307 17.0737 30.65 16.9904 30.3419 16.7547C30.0374 16.5227 29.8417 16.1747 29.4502 15.4715Z" fill="#5D4BB9"/>
</svg>
