<svg width="81" height="73" viewBox="0 0 81 73" fill="none" xmlns="http://www.w3.org/2000/svg">
<path d="M9.58333 44.5833V36.5H18.4167V44.5833H9.58333ZM0.75 36.5V28.4167H9.58333V36.5H0.75ZM40.5 8.20833V0.125H49.3333V8.20833H40.5ZM7.375 18.3125H20.625V6.1875H7.375V18.3125ZM0.75 24.375V0.125H27.25V24.375H0.75ZM7.375 66.8125H20.625V54.6875H7.375V66.8125ZM0.75 72.875V48.625H27.25V72.875H0.75ZM60.375 18.3125H73.625V6.1875H60.375V18.3125ZM53.75 24.375V0.125H80.25V24.375H53.75ZM27.25 44.5833V36.5H18.4167V28.4167H36.0833V44.5833H27.25ZM31.6667 24.375V8.20833H40.5V16.2917H49.3333V24.375H31.6667ZM10.6875 15.2812V9.21875H17.3125V15.2812H10.6875ZM10.6875 63.7812V57.7187H17.3125V63.7812H10.6875ZM63.6875 15.2812V9.21875H70.3125V15.2812H63.6875ZM58.1667 72.875V60.75H44.9167V52.6667H58.1667V40.5417H67V52.6667H80.25V60.75H67V72.875H58.1667Z" fill="#5D4BB9"/>
</svg>
