<svg width="82" height="81" viewBox="0 0 82 81" fill="none" xmlns="http://www.w3.org/2000/svg">
<path d="M40.9992 0L38.7717 0.10125L51.6305 12.96L56.1867 8.4375C67.1555 13.7362 75.053 24.435 76.268 37.125H81.3305C79.6092 16.335 62.228 0 40.9992 0ZM40.9992 13.5C34.4855 13.5 29.1867 18.7987 29.1867 25.3125C29.1867 31.8263 34.4855 37.125 40.9992 37.125C47.513 37.125 52.8117 31.8263 52.8117 25.3125C52.8117 18.7987 47.513 13.5 40.9992 13.5ZM0.667969 43.875C2.38922 64.665 19.7705 81 40.9992 81L43.2267 80.8988L30.368 68.04L25.8117 72.5625C14.843 67.2975 6.94547 56.565 5.73047 43.875H0.667969ZM40.9992 43.875C27.938 43.875 17.3742 49.1738 17.3742 55.6875V60.75H64.6242V55.6875C64.6242 49.1738 54.0605 43.875 40.9992 43.875Z" fill="#5D4BB9"/>
</svg>
