<svg width="52" height="60" viewBox="0 0 52 60" fill="none" xmlns="http://www.w3.org/2000/svg">
<path d="M51.9 55.53V46.28C51.9 43.69 51.53 41.1 50.05 38.51C48.57 35.92 46.72 33.7 44.13 32.22C41.54 30.37 35.99 30 33.4 30L27.48 36.29L29.7 41.1V52.2L26 56.27L22.3 52.2V41.1L24.89 36.29L18.6 30C15.64 30 10.09 30.37 7.49998 32.22C4.90998 33.7 3.42998 35.92 1.94998 38.51C0.469976 41.1 0.0999756 43.32 0.0999756 46.28V55.53C0.0999756 55.53 9.71998 59.6 26 59.6C42.28 59.6 51.9 55.53 51.9 55.53ZM26 0.77002C18.97 0.77002 14.9 7.43002 16.01 14.83C17.12 22.23 20.82 27.41 26 27.41C31.18 27.41 34.88 22.23 35.99 14.83C37.1 7.06002 33.03 0.77002 26 0.77002Z" fill="#5F4CDC"/>
</svg>
